<?xml version="1.0" encoding="utf-8" ?>
<svg baseProfile="full" height="200mm" version="1.1" viewBox="0,0,200,200" width="200mm" xmlns="http://www.w3.org/2000/svg" xmlns:ev="http://www.w3.org/2001/xml-events" xmlns:xlink="http://www.w3.org/1999/xlink"><defs /><rect fill="#1a1a1a" height="200" width="200" x="0" y="0" /><text alignment-baseline="middle" fill="#e1ed5e" style="dominant-baseline: central; font-size:9.0px; font-family:Arial;" text-anchor="middle" x="100.0" y="100.0">2017</text><line stroke="#e1ed5e" stroke-width="0.3" x1="100.0" x2="100.0" y1="15.0" y2="10.0" /><path d="M 100.0 14.0 a86.0,86.0 0 0,1 42.46469731375804,11.215312516191453" fill="none" id="id1" stroke="none" /><text fill="#e1ed5e" style="font-size:6.75px; font-family:Arial;" text-anchor="middle"><textPath startOffset="22.20632615414155" xlink:href="#id1">January</textPath></text><line stroke="#e1ed5e" stroke-width="0.3" x1="143.23703022742887" x2="145.7803849466894" y1="26.81831364943548" y2="22.513508569990506" /><path d="M 143.74570117128098 25.957352633546492 a86.0,86.0 0 0,1 28.547481713284135,27.462654790039103" fill="none" id="id2" stroke="none" /><text fill="#e1ed5e" style="font-size:6.75px; font-family:Arial;" text-anchor="middle"><textPath startOffset="19.985693538727396" xlink:href="#id2">February</textPath></text><line stroke="#e1ed5e" stroke-width="0.3" x1="172.23445277983987" x2="176.4835382374775" y1="55.19839476539836" y2="52.563006222186495" /><path d="M 173.08426987136738 54.67131705675599 a86.0,86.0 0 0,1 12.851231095245387,41.99856678651699" fill="none" id="id3" stroke="none" /><text fill="#e1ed5e" style="font-size:6.75px; font-family:Arial;" text-anchor="middle"><textPath startOffset="22.20632615414155" xlink:href="#id3">March</textPath></text><line stroke="#e1ed5e" stroke-width="0.3" x1="184.98032266829074" x2="189.97916517819016" y1="98.17113171792111" y2="98.06355123074" /><path d="M 185.9800911702706 98.14961562048488 a86.0,86.0 0 0,1 -9.607161424134198,41.387399972396054" fill="none" id="id4" stroke="none" /><text fill="#e1ed5e" style="font-size:6.75px; font-family:Arial;" text-anchor="middle"><textPath startOffset="21.466115282336823" xlink:href="#id4">April</textPath></text><line stroke="#e1ed5e" stroke-width="0.3" x1="174.80103733775053" x2="179.2010983576182" y1="140.37084112569926" y2="142.7455964860345" /><path d="M 175.68104954172406 140.8457921977663 a86.0,86.0 0 0,1 -30.038265399797805,32.042727171017184" fill="none" id="id5" stroke="none" /><text fill="#e1ed5e" style="font-size:6.75px; font-family:Arial;" text-anchor="middle"><textPath startOffset="22.206326154141568" xlink:href="#id5">May</textPath></text><line stroke="#e1ed5e" stroke-width="0.3" x1="143.8653032363475" x2="146.44561519142675" y1="172.8068346515853" y2="177.08958963109032" /><path d="M 144.38136562736335 173.6633856474863 a86.0,86.0 0 0,1 -40.68145358897372,12.25698825130547" fill="none" id="id6" stroke="none" /><text fill="#e1ed5e" style="font-size:6.75px; font-family:Arial;" text-anchor="middle"><textPath startOffset="21.466115282336833" xlink:href="#id6">June</textPath></text><line stroke="#e1ed5e" stroke-width="0.3" x1="102.19456741930631" x2="102.32365962044197" y1="184.97166512339345" y2="189.96999836594603" /><path d="M 102.22038585953345 185.97133177190398 a86.0,86.0 0 0,1 -42.740103519485714,-10.115201625700543" fill="none" id="id7" stroke="none" /><text fill="#e1ed5e" style="font-size:6.75px; font-family:Arial;" text-anchor="middle"><textPath startOffset="22.20632615414155" xlink:href="#id7">July</textPath></text><path d="M 97.65516085044442 120.86867818915974 l -2.1116237603244845 18.793100038075966 a39.91136071112541,39.91136071112541 0 0,0 -0.6820520413298624,-0.08258700369304048 l 2.4348032247057363 -18.753967505657577" fill="#ff6c0a" stroke="none" /><path d="M 95.51606077576429 120.51570834832081 l -7.812851089590095 35.74673212708667 a57.5905657227898,57.5905657227898 0 0,0 -0.9666435239214035,-0.22000491892338608 l 8.427014762904362 -35.6069504745856" fill="#88ff25" stroke="none" /><path d="M 95.16358092515715 120.4354850818985 l -8.195174200145841 34.627346704044975 a56.583901134261126,56.583901134261126 0 0,0 -0.9458853633141567,-0.23247560902606587 l 8.79001284820321 -34.48114983670488" fill="#95ff23" stroke="none" /><path d="M 93.08242187328487 119.8279376855182 l -9.87626735958823 28.30846434753928 a50.98182467219049,50.98182467219049 0 0,0 -0.8261008428262487,-0.2962103709773195 l 10.362087763044205 -28.134266435522004" fill="#e4ff1a" stroke="none" /><path d="M 92.7421414339146 119.70592522655815 l -11.575820250927285 31.429690482916833 a54.493656986565846,54.493656986565846 0 0,0 -0.8774251527063035,-0.33176711446768264 l 12.115115624393871 -31.225775118342515" fill="#b2ff20" stroke="none" /><path d="M 90.7491055286396 118.85261126421891 l -23.834429888974043 48.57273453850458 a75.10536561821253,75.10536561821253 0 0,0 -1.155714543408711,-0.5794992643054878 l 24.66699834006551 -48.15526743328979" fill="#3fffc1" stroke="none" /><path d="M 90.42595943632237 118.69057910512821 l -15.061024411664892 29.40234755620868 a54.03532197731477,54.03532197731477 0 0,0 -0.8241907244878053,-0.4311776333927596 l 15.564906038679194 -29.138740503871205" fill="#b8ff1f" stroke="none" /><line stroke="#e1ed5e" stroke-width="0.3" x1="58.666819895761336" x2="56.23545636021788" y1="174.27360380694188" y2="178.64263932499728" /><path d="M 58.180547188652646 175.14741091055294 a86.0,86.0 0 0,1 -31.652253787137756,-30.449443065178592" fill="none" id="id8" stroke="none" /><text fill="#e1ed5e" style="font-size:6.75px; font-family:Arial;" text-anchor="middle"><textPath startOffset="22.20632615414155" xlink:href="#id8">August</textPath></text><path d="M 88.54995079064634 117.60387380957326 l -25.409879939554166 39.066410265460185 a67.6030729627544,67.6030729627544 0 0,0 -0.9700245869812529,-0.6428794024271448 l 26.07857922527538 -38.62323284194172" fill="#34ff5b" stroke="none" /><path d="M 88.24862548938628 117.40417183066458 l -21.4196498571385 31.723205343307498 a59.27744972246801,59.27744972246801 0 0,0 -0.8407323950928439,-0.5782634075521352 l 21.962539136854236 -31.349801146390266" fill="#72ff27" stroke="none" /><path d="M 86.51685102203217 116.09983520530335 l -19.033019612589026 22.72677396969431 a50.64392164749417,50.64392164749417 0 0,0 -0.6635186307977236,-0.5654649718951077 l 19.42140371996381 -22.39578460757625" fill="#e9ff1a" stroke="none" /><path d="M 86.24171649860922 115.8653595955263 l -21.002729205764695 24.219289514076053 a53.057582857372694,53.057582857372694 0 0,0 -0.684841122370629,-0.6042926653801366 l 21.41651268104191 -23.85417370692363" fill="#c6ff1e" stroke="none" /><path d="M 84.67929136418377 114.36230785411682 l -26.62095139000136 24.955653705133532 a57.48917243182367,57.48917243182367 0 0,0 -0.6705799661203803,-0.7277821120718865 l 27.046577764117472 -24.493720338260307" fill="#89ff24" stroke="none" /><path d="M 84.4343377721795 114.09645910891817 l -28.201568433462693 25.53969438699094 a59.04739743383477,59.04739743383477 0 0,0 -0.6757866392628514,-0.7592534531767744 l 28.637013922373878 -25.050466764073303" fill="#75ff27" stroke="none" /><path d="M 83.06392112726016 112.41649034213515 l -32.527564418999205 23.847207638585164 a61.33276285093717,61.33276285093717 0 0,0 -0.6168913763596466,-0.8568081669190317 l 32.93323558773446 -23.283765866214992" fill="#58ff2a" stroke="none" /><path d="M 82.85270091963577 112.12312394758628 l -24.189223472303336 17.101757715674477 a50.624122757622075,50.624122757622075 0 0,0 -0.4969338448080471,-0.7158702665234906 l 24.48001822427352 -16.682846186963975" fill="#e9ff1a" stroke="none" /><line stroke="#e1ed5e" stroke-width="0.3" x1="26.63291911575756" x2="22.317208475507996" y1="142.92168965132927" y2="145.44649492493687" /><path d="M 25.769776987707644 143.4266507060508 a86.0,86.0 0 0,1 -11.730757126820373,-40.83630448921669" fill="none" id="id9" stroke="none" /><text fill="#e1ed5e" style="font-size:6.75px; font-family:Arial;" text-anchor="middle"><textPath startOffset="21.46611528233685" xlink:href="#id9">September</textPath></text><path d="M 81.69416730710424 110.29060199501025 l -41.00695751710061 23.052012214584654 a68.04217078272063,68.04217078272063 0 0,0 -0.5651504636492974,-1.0259122505723648 l 41.39768439020143 -22.342729445614466" fill="#35ff61" stroke="none" /><path d="M 81.51974371655577 109.97397251340807 l -29.56548883208073 15.95677941007902 a54.596680476228784,54.596680476228784 0 0,0 -0.43923677265267547,-0.8308704431591983 l 29.835778112958295 -15.445493951833695" fill="#b1ff20" stroke="none" /><path d="M 80.58989483394504 108.01547362559985 l -54.306565315202214 22.426093947299865 a79.75485278738637,79.75485278738637 0 0,0 -0.5130796243744185,-1.2734215503435546 l 54.68454755383402 -21.487973029113505" fill="#47fffb" stroke="none" /><path d="M 80.45479744820244 107.68017299344265 l -44.28385362333148 17.401081198424237 a68.58000965328614,68.58000965328614 0 0,0 -0.42227559779534596,-1.1024283354906637 l 44.57682350072034 -16.636229296100414" fill="#35ff69" stroke="none" /><path d="M 79.76711848015287 105.62410040840567 l -39.2300899721006 10.90472283038157 a61.717477073445416,61.717477073445416 0 0,0 -0.2757064403615459,-1.0260062298986 l 39.41198448880392 -10.22782566730743" fill="#53ff2b" stroke="none" /><path d="M 79.67330655649465 105.27499134158121 l -36.27857752007635 9.414673509745409 a58.480278336417015,58.480278336417015 0 0,0 -0.24447175118157496,-0.9765431217558692 l 36.43526058555298 -8.788802548592148" fill="#7cff26" stroke="none" /><path d="M 79.23777060512086 103.15116336523772 l -62.286688184637434 9.45349009571317 a84.0,84.0 0 0,0 -0.20466379593360395,-1.4314181120783975 l 62.440186031587636 -8.379926511654372" fill="#4dd2ff" stroke="none" /><line stroke="#e1ed5e" stroke-width="0.3" x1="15.007084014347285" x2="10.007500721073583" y1="101.09737516637583" y2="101.16192664675087" /><path d="M 14.007167355692545 101.11028546245083 a86.0,86.0 0 0,1 10.666146001902534,-42.60595125391555" fill="none" id="id10" stroke="none" /><text fill="#e1ed5e" style="font-size:6.75px; font-family:Arial;" text-anchor="middle"><textPath startOffset="22.20632615414155" xlink:href="#id10">October</textPath></text><path d="M 79.12142395522702 97.74499172005258 l -50.00244055862867 -5.400555920839023 a71.29324075930386,71.29324075930386 0 0,0 0.14227974064059865,-1.218965929035297 l 49.90207046498448 6.260465588199182" fill="#3aff8f" stroke="none" /><path d="M 79.46518482838121 95.60439243477599 l -41.49553112988374 -8.882381897919295 a63.435548917524734,63.435548917524734 0 0,0 0.23774922682933405,-1.065783165937342 l 41.336487516052365 9.595343233406595" fill="#3eff2e" stroke="none" /><path d="M 80.2630227832202 92.82701384747504 l -11.923187655516411 -4.333229906870692 a33.6861848202861,33.6861848202861 0 0,0 0.20275139010334706,-0.5432729238278245 l 11.846831676911437 4.537825967727858" fill="#ff0000" stroke="none" /><path d="M 81.10775173730289 90.83032412892265 l -32.76391890265457 -15.902528509368395 a57.41929152044284,57.41929152044284 0 0,0 0.43923020219372155,-0.8854612854323 l 32.48532868750743 16.464149383299656" fill="#8aff24" stroke="none" /><line stroke="#e1ed5e" stroke-width="0.3" x1="26.266209847984243" x2="21.928928074336255" y1="57.711370442889674" y2="55.22380399835377" /><path d="M 25.398753493254645 57.213857153982495 a86.0,86.0 0 0,1 29.58750427330803,-30.492523968695096" fill="none" id="id11" stroke="none" /><text fill="#e1ed5e" style="font-size:6.75px; font-family:Arial;" text-anchor="middle"><textPath startOffset="21.46611528233685" xlink:href="#id11">November</textPath></text><path d="M 82.34701348167596 88.62581576622439 l -24.90226466852927 -16.04504404306222 a50.6237442597199,50.6237442597199 0 0,0 0.47828196151945707,-0.7284562404334108 l 24.622386071651892 16.471318347473296" fill="#e9ff1a" stroke="none" /><path d="M 82.54541684631803 88.32363383020206 l -30.813362765264863 -20.612815751727325 a58.07224700660144,58.07224700660144 0 0,0 0.5629566054374181,-0.8260693532828887 l 30.453981694158703 21.14016312828063" fill="#81ff25" stroke="none" /><path d="M 85.57189188830299 84.74124197986013 l -29.084597855600848 -30.75904597858559 a63.33240770302067,63.33240770302067 0 0,0 0.798567726669038,-0.7421816708839956 l 28.550822245136956 31.255132235544234" fill="#3fff2d" stroke="none" /><path d="M 85.83668400450813 84.49514656593479 l -25.753996196188314 -28.19339316375292 a59.18554357553696,59.18554357553696 0 0,0 0.7581076626180613,-0.6806365447629152 l 25.26487754597428 28.632528717285112" fill="#73ff27" stroke="none" /><line stroke="#e1ed5e" stroke-width="0.3" x1="56.76296977257108" x2="54.21961505331056" y1="26.818313649435495" y2="22.513508569990535" /><path d="M 56.25429882871898 25.957352633546506 a86.0,86.0 0 0,1 42.26535254187918,-11.944610805530505" fill="none" id="id12" stroke="none" /><text fill="#e1ed5e" style="font-size:6.75px; font-family:Arial;" text-anchor="middle"><textPath startOffset="22.20632615414155" xlink:href="#id12">December</textPath></text></svg>