<?xml version="1.0" encoding="utf-8" ?>
<svg baseProfile="full" height="200mm" version="1.1" viewBox="0,0,200,200" width="200mm" xmlns="http://www.w3.org/2000/svg" xmlns:ev="http://www.w3.org/2001/xml-events" xmlns:xlink="http://www.w3.org/1999/xlink"><defs /><rect fill="#1a1a1a" height="200" width="200" x="0" y="0" /><text alignment-baseline="middle" fill="#e1ed5e" style="dominant-baseline: central; font-size:9.0px; font-family:Arial;" text-anchor="middle" x="100.0" y="100.0">2019</text><line stroke="#e1ed5e" stroke-width="0.3" x1="100.0" x2="100.0" y1="15.0" y2="10.0" /><path d="M 100.0 14.0 a86.0,86.0 0 0,1 42.46469731375804,11.215312516191453" fill="none" id="id25" stroke="none" /><text fill="#e1ed5e" style="font-size:6.75px; font-family:Arial;" text-anchor="middle"><textPath startOffset="22.20632615414155" xlink:href="#id25">January</textPath></text><line stroke="#e1ed5e" stroke-width="0.3" x1="143.23703022742887" x2="145.7803849466894" y1="26.81831364943548" y2="22.513508569990506" /><path d="M 143.74570117128098 25.957352633546492 a86.0,86.0 0 0,1 28.547481713284135,27.462654790039103" fill="none" id="id26" stroke="none" /><text fill="#e1ed5e" style="font-size:6.75px; font-family:Arial;" text-anchor="middle"><textPath startOffset="19.985693538727396" xlink:href="#id26">February</textPath></text><line stroke="#e1ed5e" stroke-width="0.3" x1="172.23445277983987" x2="176.4835382374775" y1="55.19839476539836" y2="52.563006222186495" /><path d="M 173.08426987136738 54.67131705675599 a86.0,86.0 0 0,1 12.851231095245387,41.99856678651699" fill="none" id="id27" stroke="none" /><text fill="#e1ed5e" style="font-size:6.75px; font-family:Arial;" text-anchor="middle"><textPath startOffset="22.20632615414155" xlink:href="#id27">March</textPath></text><path d="M 120.67395015179393 96.31383870115 l 26.172756216907224 -4.6665973528347395 a47.58552799632048,47.58552799632048 0 0,0 0.13683816448929073,0.8076265927801533 l -26.24920624291674 4.215384971738749" fill="#c9ff1d" stroke="none" /><path d="M 120.73433829027371 96.67025291283417 l 23.817434235239027 -3.8248643944307874 a45.12259855790251,45.12259855790251 0 0,0 0.1165540497366932,0.7679455607509564 l -23.87974417841502 3.4143197212877485" fill="#e7ff1a" stroke="none" /><path d="M 120.83666639777658 97.38593545837742 l 4.885836626174242 -0.6129527649396843 a25.924135521054726,25.924135521054726 0 0,0 0.05173673182735834,0.4432487232071336 l -4.895663711005189 0.528760303407698" fill="#ff0c01" stroke="none" /><path d="M 120.98425023603335 99.18683210126433 l 46.265697515929055 -1.7928579582016886 a67.30042231226116,67.30042231226116 0 0,0 0.03489464578095342,1.1579834129678395 l -46.28970385616566 0.9962043978088501" fill="#37ff79" stroke="none" /><line stroke="#e1ed5e" stroke-width="0.3" x1="184.98032266829074" x2="189.97916517819016" y1="98.17113171792111" y2="98.06355123074" /><path d="M 185.9800911702706 98.14961562048488 a86.0,86.0 0 0,1 -9.607161424134198,41.387399972396054" fill="none" id="id28" stroke="none" /><text fill="#e1ed5e" style="font-size:6.75px; font-family:Arial;" text-anchor="middle"><textPath startOffset="21.466115282336823" xlink:href="#id28">April</textPath></text><path d="M 120.81339534386255 102.79330883721812 l 5.325892823115025 0.7147735025016289 a26.37364266798478,26.37364266798478 0 0,0 -0.06425868834554739,0.44942511662423956 l -5.312800083752876 -0.8063440911062777" fill="#ff1302" stroke="none" /><path d="M 120.76222939487914 103.15116336523771 l 6.967072369475292 1.0574193549304138 a28.046859803748582,28.046859803748582 0 0,0 -0.07655222855360795,0.47669080027812527 l -6.947838386560395 -1.177189384901744" fill="#ff2d04" stroke="none" /><path d="M 120.5718875245553 104.21870165774334 l 32.86688967648873 6.740052501141006 a54.550868017454015,54.550868017454015 0 0,0 -0.19655446985508054,0.9182370468105943 l -32.746001167909206 -7.30480336736777" fill="#77ff26" stroke="none" /><path d="M 120.41448212921028 104.9243191809786 l 8.54643654396263 2.0615453841091234 a29.79156112250387,29.79156112250387 0 0,0 -0.12454104743061792,0.4974795765025225 l -8.509684182236951 -2.2083528000090418" fill="#ff4606" stroke="none" /><path d="M 120.32669344350535 105.2749913415812 l 9.763893128986192 2.533833250286104 a31.087314804967633,31.087314804967633 0 0,0 -0.13887432396298868,0.5168030219828673 l -9.718830728681425 -2.701527205444519" fill="#ff5908" stroke="none" /><path d="M 120.23288151984713 105.62410040840565 l 5.7457857551807 1.5971465053370881 a26.963634035045068,26.963634035045068 0 0,0 -0.12815091490505104,0.44611014660507775 l -5.71744220338955 -1.6958141274467478" fill="#ff1c02" stroke="none" /><path d="M 120.13307415673323 105.97154293290107 l 9.337460216285413 2.7695246206181725 a30.739529245036593,30.739529245036593 0 0,0 -0.15482948666141155,0.505991720783637 l -9.28840395711787 -2.9298433139538664" fill="#ff5407" stroke="none" /><path d="M 119.41010516605496 108.01547362559984 l 5.084411550877486 2.0996262688481226 a26.50087913769549,26.50087913769549 0 0,0 -0.17774394400407423,0.4201341789133783 l -5.047516625681101 -2.1868349734276644" fill="#ff1502" stroke="none" /><path d="M 118.97047184881838 109.00673069616215 l 8.478555134655394 4.025417153509574 a30.38562094009557,30.38562094009557 0 0,0 -0.22839387195875377,0.4705590242653271 l -8.408008006081925 -4.1707651337401765" fill="#ff4f07" stroke="none" /><line stroke="#e1ed5e" stroke-width="0.3" x1="174.80103733775053" x2="179.2010983576182" y1="140.37084112569926" y2="142.7455964860345" /><path d="M 175.68104954172406 140.8457921977663 a86.0,86.0 0 0,1 -30.038265399797805,32.042727171017184" fill="none" id="id29" stroke="none" /><text fill="#e1ed5e" style="font-size:6.75px; font-family:Arial;" text-anchor="middle"><textPath startOffset="22.206326154141568" xlink:href="#id29">May</textPath></text><path d="M 117.35343817320211 111.8261652097733 l 8.642154604666194 5.889527314593621 a31.45817231643739,31.45817231643739 0 0,0 -0.3087980525546478,0.44484662595202334 l -8.53949564494941 -6.037415202732664" fill="#ff5f08" stroke="none" /><path d="M 116.27256486870786 113.27417163493432 l 23.424656257308776 19.108414079626634 a51.22988603040952,51.22988603040952 0 0,0 -0.5632945528294971,0.6785245761287102 l -23.092265704585735 -19.508799912869115" fill="#9dff22" stroke="none" /><path d="M 115.32070863581623 114.36230785411682 l 7.294451911921082 6.838140876926878 a30.998459848798085,30.998459848798085 0 0,0 -0.36828155474368274,0.38614173777849864 l -7.175663805798435 -6.962689731287884" fill="#ff5808" stroke="none" /><path d="M 114.55890576462653 115.13401014063108 l 18.411153764620927 19.138429239062994 a47.55654451699499,47.55654451699499 0 0,0 -0.594828575467281,0.5624475454320104 l -18.07898935476284 -19.452511421240924" fill="#c9ff1d" stroke="none" /><path d="M 114.29624159901734 115.38237550388516 l 6.819924505533512 7.338057273701615 a31.017906708155238,31.017906708155238 0 0,0 -0.3942234892857817,0.3601138105138475 l -6.692601466780867 -7.4543638508020456" fill="#ff5808" stroke="none" /><path d="M 114.0293411484842 115.62618273729858 l 5.027922450511295 5.600208460904405 a28.52611048111445,28.52611048111445 0 0,0 -0.3682009708446481,0.324894546777597 l -4.93077912676006 -5.68592614945429" fill="#ff3404" stroke="none" /><path d="M 112.92097659922987 116.55440617244103 l 21.475587281349576 27.514607113239343 a55.903502025939815,55.903502025939815 0 0,0 -0.7636718432308526,0.5855510047514569 l -20.99878670962523 -27.880197459818174" fill="#69ff28" stroke="none" /><line stroke="#e1ed5e" stroke-width="0.3" x1="143.8653032363475" x2="146.44561519142675" y1="172.8068346515853" y2="177.08958963109032" /><path d="M 144.38136562736335 173.6633856474863 a86.0,86.0 0 0,1 -40.68145358897372,12.25698825130547" fill="none" id="id30" stroke="none" /><text fill="#e1ed5e" style="font-size:6.75px; font-family:Arial;" text-anchor="middle"><textPath startOffset="21.466115282336833" xlink:href="#id30">June</textPath></text><path d="M 110.5260780823613 118.17145234162733 l 11.937504498192514 20.608035810637414 a44.81585928781241,44.81585928781241 0 0,0 -0.6708533632671388,0.38092804786037676 l -11.581002368004176 -20.810467024292418" fill="#ebff1a" stroke="none" /><path d="M 108.92500713936063 119.00905698771935 l 13.379377255327302 28.496262326231875 a52.48086247715891,52.48086247715891 0 0,0 -0.8210306158797832,0.37689488674166105 l -12.8868786436801 -28.72234428330761" fill="#8fff24" stroke="none" /><path d="M 108.59647513512805 119.15986991738527 l 5.690076056276615 12.68207205215916 a34.900068958906964,34.900068958906964 0 0,0 -0.5502233945387042,0.2412017665907287 l -5.470931987080157 -12.778138372044344" fill="#ff900d" stroke="none" /><path d="M 108.2653958097858 119.30500536409082 l 13.035890639318108 30.447173312594103 a54.12045904705133,54.12045904705133 0 0,0 -0.8595579865376407,0.35929530808495064 l -12.509861193283006 -30.667053663699026" fill="#7cff26" stroke="none" /><path d="M 107.93186726928326 119.44442032107085 l 3.446683340143557 8.449304218556302 a30.125259877117827,30.125259877117827 0 0,0 -0.4818304700707369,0.19173028788876373 l -3.3007317940309537 -8.507381350851134" fill="#ff4b07" stroke="none" /><path d="M 105.88484417918355 120.15858648285463 l 7.295946021040489 24.992328490129843 a47.03550098808341,47.03550098808341 0 0,0 -0.7791516564923447,0.2201960408602743 l -6.864663196443539 -25.114213324328635" fill="#cfff1d" stroke="none" /><path d="M 104.83641907484287 120.43548508189849 l 2.303058193024201 9.731189671114114 a31.0000064727806,31.0000064727806 0 0,0 -0.5203275071593341,0.11842484658854219 l -2.135210536472005 -9.769391251280341" fill="#ff5808" stroke="none" /><path d="M 103.7750983002368 120.6578951692458 l 5.061500238189506 27.69727646908492 a49.155956891324394,49.155956891324394 0 0,0 -0.8336640288152741,0.14494317737480708 l -4.583987237902182 -27.780298224980733" fill="#b6ff1f" stroke="none" /><path d="M 103.41894727170886 120.7198165907248 l 5.06695272872084 30.70720981329847 a52.12244759772318,52.12244759772318 0 0,0 -0.8864889991833866,0.13845135010537046 l -4.537627865928936 -30.789879470750947" fill="#93ff23" stroke="none" /><path d="M 100.90346689309514 120.98055641714683 l 1.3337175733938171 30.971955925542034 a52.00065896750096,52.00065896750096 0 0,0 -0.8946085611650041,0.030812127690884206 l -0.8003886605541607 -30.99032485165901" fill="#94ff23" stroke="none" /><line stroke="#e1ed5e" stroke-width="0.3" x1="102.19456741930631" x2="102.32365962044197" y1="184.97166512339345" y2="189.96999836594603" /><path d="M 102.22038585953345 185.97133177190398 a86.0,86.0 0 0,1 -42.740103519485714,-10.115201625700543" fill="none" id="id31" stroke="none" /><text fill="#e1ed5e" style="font-size:6.75px; font-family:Arial;" text-anchor="middle"><textPath startOffset="22.20632615414155" xlink:href="#id31">July</textPath></text><path d="M 95.86986931433489 120.58985236759428 l -6.116735740791992 30.49363215348552 a52.101062008149626,52.101062008149626 0 0,0 -0.8778000289085865,-0.18395153074761517 l 6.640727231129965 -30.383824642011362" fill="#93ff23" stroke="none" /><path d="M 94.81253420990036 120.34920634021253 l -2.5815268660515662 10.126721793586322 a31.4505873157848,31.4505873157848 0 0,0 -0.5234419450504066,-0.13824577517761835 l 2.755459253913462 -10.080784669105121" fill="#ff5f08" stroke="none" /><path d="M 94.46302465271185 120.25689768951611 l -1.2567360732406858 4.597740185140824 a25.766403294712187,25.766403294712187 0 0,0 -0.42682517220366456,-0.12062505710616447 l 1.3356924135489643 -4.575426334696139" fill="#ff0a01" stroke="none" /><path d="M 93.76903079525671 120.05430185196036 l -7.623548076880288 24.5363007411923 a46.69335593772715,46.69335593772715 0 0,0 -0.7655012274014598,-0.24508931928194053 l 8.044770649372689 -24.40143857525065" fill="#d3ff1c" stroke="none" /><path d="M 93.42475214034765 119.94407469862007 l -6.640964796781636 20.143407641050054 a42.20988648780579,42.20988648780579 0 0,0 -0.6880819863838067,-0.2334347685744305 l 6.986716516102668 -20.026109885577497" fill="#fff216" stroke="none" /><path d="M 91.07499286063937 119.00905698771935 l -7.4106823466943705 15.78375018042738 a38.43688569102146,38.43688569102146 0 0,0 -0.5964806727726979,-0.28634697100168904 l 7.681275687467311 -15.653848932926127" fill="#ffc011" stroke="none" /><line stroke="#e1ed5e" stroke-width="0.3" x1="58.666819895761336" x2="56.23545636021788" y1="174.27360380694188" y2="178.64263932499728" /><path d="M 58.180547188652646 175.14741091055294 a86.0,86.0 0 0,1 -31.652253787137756,-30.449443065178592" fill="none" id="id32" stroke="none" /><text fill="#e1ed5e" style="font-size:6.75px; font-family:Arial;" text-anchor="middle"><textPath startOffset="22.20632615414155" xlink:href="#id32">August</textPath></text><path d="M 88.8546689885994 117.79835938074946 l -9.309343527944462 14.866408322886382 a38.54063776902274,38.54063776902274 0 0,0 -0.5592396994732804,-0.3569332357144406 l 9.563865029464665 -14.703960658348139" fill="#ffc212" stroke="none" /><path d="M 86.79598089348748 116.32954008644616 l -16.99324111667759 21.01570815484253 a48.0264728164638,48.0264728164638 0 0,0 -0.6383630087481685,-0.5253292966673647 l 17.35247425397045 -20.720083739317985" fill="#c3ff1e" stroke="none" /><path d="M 84.9287848128048 114.62390073753433 l -17.861055829814934 17.330938764957168 a45.88732114612702,45.88732114612702 0 0,0 -0.5451707619394532,-0.5716093643295325 l 18.156733143133344 -17.020922284045138" fill="#ddff1b" stroke="none" /><path d="M 83.50135304334701 112.99209946851258 l -4.008381326135499 3.1564581649455135 a26.101994610224807,26.101994610224807 0 0,0 -0.27493253641868803,-0.3553873646000259 l 4.0621206797722555 -3.086992806232235" fill="#ff0f01" stroke="none" /><path d="M 83.28015986056508 112.70617746262583 l -50.159520418304766 38.118532387877515 a84.0,84.0 0 0,0 -0.8649549332196598,-1.1587484819627774 l 50.80823661821951 -37.24947102640543" fill="#4dd2ff" stroke="none" /><path d="M 82.85270091963577 112.12312394758628 l -12.65921151016319 8.950050354703407 a36.503516936836455,36.503516936836455 0 0,0 -0.35832389841672135,-0.5161923007284784 l 12.811396315742046 -8.73081679178792" fill="#ffa60f" stroke="none" /><path d="M 82.6465618267979 111.8261652097733 l -4.570257040533289 3.114576735343453 a26.53062723901067,26.53062723901067 0 0,0 -0.2539320803117444,-0.37959400610896127 l 4.623192226255764 -3.0354458150286683" fill="#ff1602" stroke="none" /><path d="M 82.05923443525364 110.91462005526583 l -21.00072631216958 12.776207779692673 a45.58174100564342,45.58174100564342 0 0,0 -0.4020290549150129,-0.6738238207055968 l 21.217536242782824 -12.412821865100964" fill="#e1ff1b" stroke="none" /><line stroke="#e1ed5e" stroke-width="0.3" x1="26.63291911575756" x2="22.317208475507996" y1="142.92168965132927" y2="145.44649492493687" /><path d="M 25.769776987707644 143.4266507060508 a86.0,86.0 0 0,1 -11.730757126820373,-40.83630448921669" fill="none" id="id33" stroke="none" /><text fill="#e1ed5e" style="font-size:6.75px; font-family:Arial;" text-anchor="middle"><textPath startOffset="21.46611528233685" xlink:href="#id33">September</textPath></text><path d="M 80.73074385275274 108.34839909993369 l -31.773124099830326 13.765695915303834 a55.626951917485194,55.626951917485194 0 0,0 -0.37309531413526326,-0.8818871120416445 l 32.0053703951579 -13.21673427759603" fill="#6cff28" stroke="none" /><path d="M 80.32549172779594 107.34259656027581 l -4.949485243835437 1.847165521176744 a26.282937122621174,26.282937122621174 0 0,0 -0.1545383373413748,-0.42522313278858326 l 4.980547842182037 -1.7616945913820434" fill="#ff1202" stroke="none" /><path d="M 79.67330655649465 105.27499134158121 l -20.092598037428218 5.214241114615233 a41.75815035823298,41.75815035823298 0 0,0 -0.17456633987707176,-0.6973057528042921 l 20.17937569160035 -4.867607522413549" fill="#ffec16" stroke="none" /><path d="M 79.58551787078972 104.9243191809786 l -22.468918867847144 5.4198841516765865 a44.11336105605354,44.11336105605354 0 0,0 -0.17170481750585256,-0.739699859882631 l 22.55888425128355 -5.032315634445381" fill="#f4ff19" stroke="none" /><path d="M 79.50377843672027 104.57218783832718 l -20.22242935015018 4.511111731043952 a41.71947822392682,41.71947822392682 0 0,0 -0.15032116303467544,-0.70225042920602 l 20.297084551909293 -4.162347482421768" fill="#ffec16" stroke="none" /><path d="M 79.4281124754447 104.21870165774334 l -18.322658692076203 3.7574496023401864 a39.7039634585946,39.7039634585946 0 0,0 -0.13153368566410079,-0.6706874294253315 l 18.384622310715972 -3.4414984458469" fill="#ffd113" stroke="none" /><path d="M 79.35854240842038 103.8639653848113 l -12.844284554181481 2.404378212625323 a34.067389957376044,34.067389957376044 0 0,0 -0.1029379568101764,-0.5773307284423694 l 12.883768953330845 -2.18292873344974" fill="#ff840c" stroke="none" /><path d="M 79.29508885075956 103.50808413554451 l -34.028630981455635 5.765554830923397 a55.51361106839541,55.51361106839541 0 0,0 -0.15152108550047888,-0.943521944049668 l 34.1228338213174 -5.178953657180515" fill="#6dff28" stroke="none" /><path d="M 79.18660465613746 102.79330883721812 l -14.992436277474567 2.012093848861062 a36.126852520956234,36.126852520956234 0 0,0 -0.07741208757641574,-0.6170505044163893 l 15.02484987429783 -1.753725590157264" fill="#ffa10e" stroke="none" /><path d="M 79.10278846688536 102.07522291339032 l -28.533169426059683 2.8335209647840323 a49.67351737325049,49.67351737325049 0 0,0 -0.07717231231619093,-0.8515900357441103 l 28.577716334652948 -2.3419495404913557" fill="#b0ff20" stroke="none" /><path d="M 79.07016306316243 101.71520430193888 l -26.620319974758033 2.1815405192828727 a47.70955923626922,47.70955923626922 0 0,0 -0.060030987601427506,-0.8190751309797213 l 26.653927521023792 -1.722992251806391" fill="#c7ff1e" stroke="none" /><line stroke="#e1ed5e" stroke-width="0.3" x1="15.007084014347285" x2="10.007500721073583" y1="101.09737516637583" y2="101.16192664675087" /><path d="M 14.007167355692545 101.11028546245083 a86.0,86.0 0 0,1 10.666146001902534,-42.60595125391555" fill="none" id="id34" stroke="none" /><text fill="#e1ed5e" style="font-size:6.75px; font-family:Arial;" text-anchor="middle"><textPath startOffset="22.20632615414155" xlink:href="#id34">October</textPath></text><path d="M 79.08570108090925 98.10471618934814 l -4.098995053163097 -0.3714568197698782 a25.115791614599686,25.115791614599686 0 0,0 0.0427242032018895,-0.4302268956904758 l 4.0919937242789794 0.4419592461647843" fill="#ff0000" stroke="none" /><path d="M 79.16333360222342 97.38593545837743 l -20.658989793686622 -2.5917741184924483 a41.820930631865025,41.820930631865025 0 0,0 0.09575798418594583,-0.7135082077706415 l 20.611315810442843 2.947000668327749" fill="#ffed16" stroke="none" /><path d="M 79.32604984820605 96.31383870115002 l -5.353529593711559 -0.9545332873347984 a26.437960362799238,26.437960362799238 0 0,0 0.08373818070625541,-0.4473327097180059 l 5.3363056890954415 1.046544074515377" fill="#ff1402" stroke="none" /><path d="M 79.62865764111835 94.90015583598534 l -21.8245542182843 -5.463647093133868 a43.49805783584755,43.49805783584755 0 0,0 0.18808491466726082,-0.7247679008783481 l 21.727272971746732 5.83851141956108" fill="#fbff18" stroke="none" /><path d="M 79.71946130924805 94.55025226153421 l -22.20223753894139 -5.9661429936228085 a43.98987198650599,43.98987198650599 0 0,0 0.20280007473266778,-0.7295797703308449 l 22.09625069364236 6.347434067372596" fill="#f5ff19" stroke="none" /><path d="M 79.81627453868168 94.20196356495316 l -17.253047399472443 -4.956161221546742 a38.95079882964562,38.95079882964562 0 0,0 0.19066249630837126,-0.6428191541477364 l 17.165179006052366 5.252409762441018" fill="#ffc712" stroke="none" /><path d="M 79.91906864156998 93.8553929516997 l -16.67503515888832 -5.10242960045511 a38.4382219672122,38.4382219672122 0 0,0 0.19904504060166145,-0.6310271726695688 l 16.584734634518455 5.388706939551094" fill="#ffc011" stroke="none" /><path d="M 80.02781315780177 93.51064311812611 l -6.342742691045648 -2.060882028458037 a27.66915433769787,27.66915433769787 0 0,0 0.15107714835271144,-0.4517014441122062 l 6.306328248921163 2.1697565754925656" fill="#ff2703" stroke="none" /><path d="M 80.2630227832202 92.82701384747504 l -4.6087859243680445 -1.6749655862873631 a25.903714654412507,25.903714654412507 0 0,0 0.1559100320514709,-0.4177613723068336 l 4.579271303814946 1.754050095623538" fill="#ff0c01" stroke="none" /><path d="M 80.38941819471856 92.48833698450439 l -20.23947353657569 -7.752554530373661 a42.6734489822032,42.6734489822032 0 0,0 0.2686526287734213,-0.68369163688534 l 20.103027357920578 8.099795172154764" fill="#fff817" stroke="none" /><path d="M 80.52162464483688 92.15188598940014 l -26.283729183871774 -10.590087699695054 a49.33697897268418,49.33697897268418 0 0,0 0.324163482513423,-0.78498758532305 l 26.09754401447215 11.040949855471416" fill="#b4ff20" stroke="none" /><path d="M 80.803312248108 91.48605970444005 l -33.0430679026065 -14.654960842252464 a57.1470913588385,57.1470913588385 0 0,0 0.4065544305378162,-0.8957887968581478 l 32.78591115510533 15.221571647952683" fill="#5bff2a" stroke="none" /><path d="M 81.10775173730289 90.83032412892265 l -4.785769698107379 -2.322855189867345 a26.31970373577481,26.31970373577481 0 0,0 0.20133318415166088,-0.40587541373232067 l 4.7450765010023055 2.404890192098627" fill="#ff1202" stroke="none" /><path d="M 81.26839172434947 90.50648371742162 l -19.424915367503875 -9.844896797720411 a42.77726635720043,42.77726635720043 0 0,0 0.33853229256018685,-0.6539366365617424 l 19.252573641783574 10.17780615654249" fill="#fff917" stroke="none" /><path d="M 81.43458229118936 90.18545643968196 l -20.7471238953977 -10.96789495482571 a44.46780496064925,44.46780496064925 0 0,0 0.3635600932036256,-0.6736216374973871 l 20.5552557029756 11.32339757565557" fill="#efff19" stroke="none" /><line stroke="#e1ed5e" stroke-width="0.3" x1="26.266209847984243" x2="21.928928074336255" y1="57.711370442889674" y2="55.22380399835377" /><path d="M 25.398753493254645 57.213857153982495 a86.0,86.0 0 0,1 29.58750427330803,-30.492523968695096" fill="none" id="id35" stroke="none" /><text fill="#e1ed5e" style="font-size:6.75px; font-family:Arial;" text-anchor="middle"><textPath startOffset="21.46611528233685" xlink:href="#id35">November</textPath></text><path d="M 82.15384107792192 88.93136811851018 l -15.442811193207902 -9.578015810534144 a39.17192351997744,39.17192351997744 0 0,0 0.3603302202868263,-0.5699558750041883 l 15.275653376675113 9.842419333252547" fill="#ffca12" stroke="none" /><path d="M 82.7489923806493 88.02491185347247 l -22.648488318212767 -15.72184361520819 a48.57046226963347,48.57046226963347 0 0,0 0.4826686917125898,-0.6827006346966974 l 22.374507006696298 16.109370750236675" fill="#bdff1f" stroke="none" /><path d="M 84.31358615837235 86.03803664274999 l -3.670417279811477 -3.2669182442803453 a25.913727487636088,25.913727487636088 0 0,0 0.29943479858179506,-0.3306433834175419 l 3.613638840613637 3.3296144149674434" fill="#ff0c01" stroke="none" /><path d="M 85.31137513191541 84.99185889309783 l -12.641824072324663 -12.916817008399933 a39.07373446479994,39.07373446479994 0 0,0 0.4847315506056657,-0.46631136763034986 l 12.41760927810657 13.132511462792593" fill="#ffc912" stroke="none" /><path d="M 86.93701828274178 83.55741782278169 l -16.118188491656113 -20.288219378873613 a46.911538854685155,46.911538854685155 0 0,0 0.6365838743313786,-0.4968638112417429 l 15.766572062165311 20.562661579338574" fill="#d1ff1d" stroke="none" /><line stroke="#e1ed5e" stroke-width="0.3" x1="56.76296977257108" x2="54.21961505331056" y1="26.818313649435495" y2="22.513508569990535" /><path d="M 56.25429882871898 25.957352633546506 a86.0,86.0 0 0,1 42.26535254187918,-11.944610805530505" fill="none" id="id36" stroke="none" /><text fill="#e1ed5e" style="font-size:6.75px; font-family:Arial;" text-anchor="middle"><textPath startOffset="22.20632615414155" xlink:href="#id36">December</textPath></text><path d="M 89.3179101791058 81.91981866633112 l -10.002481612936485 -16.92989708763202 a40.66395315837951,40.66395315837951 0 0,0 0.6057055913722944,-0.35086377411353464 l 9.709579289098869 17.0995650191356" fill="#ffde14" stroke="none" /><path d="M 91.23893434514133 80.91482961587045 l -7.271148076249595 -15.839522883440585 a38.42871422457165,38.42871422457165 0 0,0 0.6035465293139978,-0.270793734744137 l 6.997419428468823 15.962336948701251" fill="#ffc011" stroke="none" /><path d="M 92.23578459929587 80.48803036053334 l -1.9152397473108957 -4.813119919166707 a26.180180175047855,26.180180175047855 0 0,0 0.4201505458253722,-0.1630118843498784 l 1.832106036485846 4.845374507407136" fill="#ff1001" stroke="none" /><path d="M 92.91201910852362 80.23233633223022 l -1.842074698448546 -5.137360504685926 a26.457628802856707,26.457628802856707 0 0,0 0.43002213524897864,-0.1500262792824069 l 1.753370559136282 5.1683076371405425" fill="#ff1502" stroke="none" /><path d="M 93.94186890950719 79.89281104454417 l -5.923071588024008 -19.65892085167844 a41.53182763636532,41.53182763636532 0 0,0 0.6862833555068345,-0.20034493060116065 l 5.583798014793753 19.7579641111983" fill="#ffe915" stroke="none" /></svg>