<?xml version="1.0" encoding="utf-8" ?>
<svg baseProfile="full" height="200mm" version="1.1" viewBox="0,0,200,200" width="200mm" xmlns="http://www.w3.org/2000/svg" xmlns:ev="http://www.w3.org/2001/xml-events" xmlns:xlink="http://www.w3.org/1999/xlink"><defs /><rect fill="#1a1a1a" height="200" width="200" x="0" y="0" /><text alignment-baseline="middle" fill="#e1ed5e" style="dominant-baseline: central; font-size:9.0px; font-family:Arial;" text-anchor="middle" x="100.0" y="100.0">2022</text><line stroke="#e1ed5e" stroke-width="0.3" x1="100.0" x2="100.0" y1="15.0" y2="10.0" /><path d="M 100.0 14.0 a86.0,86.0 0 0,1 42.46469731375804,11.215312516191453" fill="none" id="id61" stroke="none" /><text fill="#e1ed5e" style="font-size:6.75px; font-family:Arial;" text-anchor="middle"><textPath startOffset="22.20632615414155" xlink:href="#id61">January</textPath></text><line stroke="#e1ed5e" stroke-width="0.3" x1="143.23703022742887" x2="145.7803849466894" y1="26.81831364943548" y2="22.513508569990506" /><path d="M 143.74570117128098 25.957352633546492 a86.0,86.0 0 0,1 28.547481713284135,27.462654790039103" fill="none" id="id62" stroke="none" /><text fill="#e1ed5e" style="font-size:6.75px; font-family:Arial;" text-anchor="middle"><textPath startOffset="19.985693538727396" xlink:href="#id62">February</textPath></text><line stroke="#e1ed5e" stroke-width="0.3" x1="172.23445277983987" x2="176.4835382374775" y1="55.19839476539836" y2="52.563006222186495" /><path d="M 173.08426987136738 54.67131705675599 a86.0,86.0 0 0,1 12.851231095245387,41.99856678651699" fill="none" id="id63" stroke="none" /><text fill="#e1ed5e" style="font-size:6.75px; font-family:Arial;" text-anchor="middle"><textPath startOffset="22.20632615414155" xlink:href="#id63">March</textPath></text><line stroke="#e1ed5e" stroke-width="0.3" x1="184.98032266829074" x2="189.97916517819016" y1="98.17113171792111" y2="98.06355123074" /><path d="M 185.9800911702706 98.14961562048488 a86.0,86.0 0 0,1 -9.607161424134198,41.387399972396054" fill="none" id="id64" stroke="none" /><text fill="#e1ed5e" style="font-size:6.75px; font-family:Arial;" text-anchor="middle"><textPath startOffset="21.466115282336823" xlink:href="#id64">April</textPath></text><line stroke="#e1ed5e" stroke-width="0.3" x1="174.80103733775053" x2="179.2010983576182" y1="140.37084112569926" y2="142.7455964860345" /><path d="M 175.68104954172406 140.8457921977663 a86.0,86.0 0 0,1 -30.038265399797805,32.042727171017184" fill="none" id="id65" stroke="none" /><text fill="#e1ed5e" style="font-size:6.75px; font-family:Arial;" text-anchor="middle"><textPath startOffset="22.206326154141568" xlink:href="#id65">May</textPath></text><line stroke="#e1ed5e" stroke-width="0.3" x1="143.8653032363475" x2="146.44561519142675" y1="172.8068346515853" y2="177.08958963109032" /><path d="M 144.38136562736335 173.6633856474863 a86.0,86.0 0 0,1 -40.68145358897372,12.25698825130547" fill="none" id="id66" stroke="none" /><text fill="#e1ed5e" style="font-size:6.75px; font-family:Arial;" text-anchor="middle"><textPath startOffset="21.466115282336833" xlink:href="#id66">June</textPath></text><path d="M 102.34483914955558 120.86867818915974 l 2.7500399309056314 24.474897707284374 a45.62891263136904,45.62891263136904 0 0,0 -0.7812699825986278,0.08098182811657842 l -2.328337351701401 -24.518608903856713" fill="#fff917" stroke="none" /><path d="M 101.98527174616119 120.90594882070398 l 2.405237034672185 25.328402746752133 a46.44234955531111,46.44234955531111 0 0,0 -0.7964988614180419,0.06872527325557032 l -1.9688938555126014 -25.366052272286364" fill="#f9ff18" stroke="none" /><path d="M 101.62511606390274 120.93702456842531 l 1.850821234864411 23.844875161137285 a44.91659697142649,44.91659697142649 0 0,0 -0.7713617869990814,0.05319762501781852 l -1.4400966870863994 -23.87320113067139" fill="#fff016" stroke="none" /><path d="M 101.26447882468166 120.96189622390904 l 1.4992541152313543 24.853883325930838 a45.89906181527772,45.89906181527772 0 0,0 -0.7890528078067862,0.040785017281272505 l -1.0712132390110884 -24.87600814997431" fill="#fffd17" stroke="none" /><path d="M 100.90346689309514 120.98055641714683 l 1.0878842413025058 25.26314674550958 a46.28655918877904,46.28655918877904 0 0,0 -0.7963043726624991,0.027426332673738976 l -0.6528595169653544 -25.278129876609412" fill="#fbff18" stroke="none" /><line stroke="#e1ed5e" stroke-width="0.3" x1="102.19456741930631" x2="102.32365962044197" y1="184.97166512339345" y2="189.96999836594603" /><path d="M 102.22038585953345 185.97133177190398 a86.0,86.0 0 0,1 -42.740103519485714,-10.115201625700543" fill="none" id="id67" stroke="none" /><text fill="#e1ed5e" style="font-size:6.75px; font-family:Arial;" text-anchor="middle"><textPath startOffset="22.20632615414155" xlink:href="#id67">July</textPath></text><path d="M 100.18074693466247 120.99922214144158 l 0.22877481179850026 26.579112405389555 a47.58009695567054,47.58009695567054 0 0,0 -0.8190434929218932,0.0 l 0.22877481179848197 -26.579112405389555" fill="#eaff1a" stroke="none" /><path d="M 99.81925306533755 120.99922214144158 l -0.21672411195603772 25.179059212654018 a46.17999190180649,46.17999190180649 0 0,0 -0.7948243139877629,-0.013683621374153037 l 0.6501081158364684 -25.171598114000705" fill="#fdff18" stroke="none" /><path d="M 99.45781275523022 120.99299961872073 l -0.7138993895997499 27.641538524271525 a48.650755944951264,48.650755944951264 0 0,0 -0.836977523740703,-0.028827198235521177 l 1.1895972650150959 -27.625154527609908" fill="#dcff1b" stroke="none" /><path d="M 98.73552117531835 120.96189622390904 l -1.5982537131936592 26.495049044318712 a47.54321078529482,47.54321078529482 0 0,0 -0.8164691562530533,-0.05630849329721373 l 2.0540856302256425 -26.46361220650521" fill="#eaff1a" stroke="none" /><path d="M 98.37488393609728 120.93702456842531 l -1.3046562500814851 16.80841176088507 a37.858968943987534,37.858968943987534 0 0,0 -0.6492915614106484,-0.056023607994917776 l 1.5937921292336752 -16.783463900611487" fill="#ff890c" stroke="none" /><path d="M 98.01472825383883 120.90594882070398 l -2.2700553951808446 23.904869448517694 a45.01241209974259,45.01241209974259 0 0,0 -0.7707141018677817,-0.07988766791842682 l 2.68120209365422 -23.86225241214351" fill="#fff116" stroke="none" /><path d="M 95.16358092515715 120.4354850818985 l -6.168202759924414 26.062715726646633 a47.78267866244026,47.78267866244026 0 0,0 -0.7987596376485874,-0.1963156852085903 l 6.615915682316213 -25.952678783124014" fill="#e7ff1a" stroke="none" /><path d="M 92.40401165467489 119.57807347666478 l -6.342859633686127 16.348230976013035 a38.535578815018255,38.535578815018255 0 0,0 -0.6163470831663095,-0.24525722434599617 l 6.623327792894295 -16.236626907260973" fill="#ff930d" stroke="none" /><path d="M 90.10565033884886 118.52300852407294 l -11.16572900968214 20.90313165663567 a44.69840537614929,44.69840537614929 0 0,0 -0.6755359148684715,-0.3683560429416274 l 11.523887736419253 -20.707834961934275" fill="#ffed16" stroke="none" /><line stroke="#e1ed5e" stroke-width="0.3" x1="58.666819895761336" x2="56.23545636021788" y1="174.27360380694188" y2="178.64263932499728" /><path d="M 58.180547188652646 175.14741091055294 a86.0,86.0 0 0,1 -31.652253787137756,-30.449443065178592" fill="none" id="id68" stroke="none" /><text fill="#e1ed5e" style="font-size:6.75px; font-family:Arial;" text-anchor="middle"><textPath startOffset="22.20632615414155" xlink:href="#id68">August</textPath></text><path d="M 88.8546689885994 117.79835938074946 l -19.478362214804417 31.105661239928793 a57.701072950859746,57.701072950859746 0 0,0 -0.8372650937878566,-0.5343821966822524 l 20.010909110639194 -30.76576461442274" fill="#6aff28" stroke="none" /><path d="M 85.70375840098266 115.38237550388516 l -16.260284610931347 17.49563351689465 a44.88501722389955,44.88501722389955 0 0,0 -0.5614135998794996,-0.5308516003561462 l 16.559034045201663 -17.213147279792576" fill="#ffef16" stroke="none" /><path d="M 85.44109423537348 115.13401014063109 l -5.702347021022099 5.927600537893843 a29.225157122207392,29.225157122207392 0 0,0 -0.35953908258796075,-0.35188466525818424 l 5.8035360559858535 -5.828565769713089" fill="#ff0100" stroke="none" /><path d="M 84.9287848128048 114.62390073753433 l -6.201905730967738 6.017832846702014 a29.641640287969416,29.641640287969416 0 0,0 -0.35216166943952004,-0.3692401024835357 l 6.304573951786216 -5.910185627635977" fill="#ff0801" stroke="none" /><line stroke="#e1ed5e" stroke-width="0.3" x1="26.63291911575756" x2="22.317208475507996" y1="142.92168965132927" y2="145.44649492493687" /><path d="M 25.769776987707644 143.4266507060508 a86.0,86.0 0 0,1 -11.730757126820373,-40.83630448921669" fill="none" id="id69" stroke="none" /><text fill="#e1ed5e" style="font-size:6.75px; font-family:Arial;" text-anchor="middle"><textPath startOffset="21.46611528233685" xlink:href="#id69">September</textPath></text><path d="M 81.51974371655577 109.97397251340807 l -22.090292266688788 11.922343743603182 a46.10225672660457,46.10225672660457 0 0,0 -0.3708981256729627,-0.7015994771651172 l 22.292242900586636 -11.54032925135194" fill="#feff18" stroke="none" /><path d="M 81.35079622478065 109.6543875284942 l -21.755821564244673 11.262632706125727 a45.49821763737816,45.49821763737816 0 0,0 -0.35406567850734666,-0.6986051739146287 l 21.946465912538287 -10.886473320508413" fill="#fff817" stroke="none" /><path d="M 81.18737489456691 109.33194174019688 l -43.7422244219 21.698188721886552 a69.82820487368411,69.82820487368411 0 0,0 -0.5248645112262499,-1.0813763528590858 l 44.10924218974097 -20.94202341306218" fill="#39ff8b" stroke="none" /><path d="M 81.02952815118164 109.00673069616217 l -21.709559334074967 10.307184555693915 a45.03212474886182,45.03212474886182 0 0,0 -0.3264301164005816,-0.7031014301403942 l 21.883764067315376 -9.931963058274693" fill="#fff116" stroke="none" /><path d="M 80.87730276802145 108.67885076344099 l -23.08693949911673 10.478025148165463 a46.35341764814882,46.35341764814882 0 0,0 -0.32350031473860186,-0.729407808146648 l 23.26388089858661 -10.07906900352612" fill="#fbff18" stroke="none" /><path d="M 80.73074385275274 108.34839909993369 l -22.87553026550314 9.91081621520269 a45.930185779080645,45.930185779080645 0 0,0 -0.30805817145898007,-0.7281585184162795 l 23.04273941815443 -9.515583171120252" fill="#fffe18" stroke="none" /><path d="M 79.4281124754447 104.21870165774334 l -23.245061534774443 4.766892659414284 a44.72880425520486,44.72880425520486 0 0,0 -0.14818028142632844,-0.7555680625808749 l 23.323671749176437 -4.366060869765454" fill="#ffed16" stroke="none" /><line stroke="#e1ed5e" stroke-width="0.3" x1="15.007084014347285" x2="10.007500721073583" y1="101.09737516637583" y2="101.16192664675087" /><path d="M 14.007167355692545 101.11028546245083 a86.0,86.0 0 0,1 10.666146001902534,-42.60595125391555" fill="none" id="id70" stroke="none" /><text fill="#e1ed5e" style="font-size:6.75px; font-family:Arial;" text-anchor="middle"><textPath startOffset="22.20632615414155" xlink:href="#id70">October</textPath></text><path d="M 79.16333360222342 97.38593545837743 l -27.464861397512887 -3.44560492303499 a48.68015182166161,48.68015182166161 0 0,0 0.11146364124083655,-0.8305335953909053 l 27.401481757214217 3.9178568604905553" fill="#dbff1b" stroke="none" /><path d="M 79.26566170972629 96.67025291283419 l -19.504063010240966 -3.132176010975606 a40.753961639913676,40.753961639913676 0 0,0 0.117193137100506,-0.6916805290903247 l 19.44725801162024 3.467442328381759" fill="#ffb410" stroke="none" /><path d="M 79.32604984820605 96.31383870115002 l -40.554928892278916 -7.230935948994715 a62.19452259896045,62.19452259896045 0 0,0 0.1969916022591241,-1.0523370162457188 l 40.42445156610993 7.927951042703007" fill="#37ff2e" stroke="none" /><path d="M 79.54389044137918 95.25157060432595 l -24.409638957104498 -5.666153030201115 a46.05864649532873,46.05864649532873 0 0,0 0.185917261294574,-0.7707470756303658 l 24.30848889554911 6.085485337490878" fill="#ffff18" stroke="none" /><path d="M 79.71946130924805 94.55025226153421 l -24.529352231572414 -6.591480822499099 a46.39954212843058,46.39954212843058 0 0,0 0.2139090246521695,-0.7695445738032833 l 24.412256436353882 7.012736699721325" fill="#faff18" stroke="none" /><path d="M 79.91906864156998 93.8553929516997 l -24.083136062286012 -7.369250208176972 a46.18537852058804,46.18537852058804 0 0,0 0.23916222115255883,-0.7582095980240846 l 23.95271835736525 7.782709972627471" fill="#fdff18" stroke="none" /><path d="M 80.2630227832202 92.82701384747504 l -11.783394627288374 -4.282425092907248 a33.537446056465015,33.537446056465015 0 0,0 0.20185615690054107,-0.5408741439262503 l 11.707933881886206 4.484622373862839" fill="#ff4706" stroke="none" /><path d="M 80.65960295795067 91.81776055985345 l -7.52835098542662 -3.184979616411055 a29.174360141119784,29.174360141119784 0 0,0 0.1996488850797324,-0.4608171530927645 l 7.472411390504209 3.314095914090419" fill="#ff0000" stroke="none" /><path d="M 80.95270993114464 91.15688171328213 l -35.835767999090656 -16.637533957101212 a60.50961660480073,60.50961660480073 0 0,0 0.44673905944530706,-0.940946391856251 l 35.5440707458036 17.251922764597996" fill="#4aff2c" stroke="none" /><path d="M 81.6062741919709 89.86733742301443 l -11.261624387745684 -6.2037588893473705 a33.85732507980664,33.85732507980664 0 0,0 0.28559840115075674,-0.5080476877212219 l 11.153168345302497 6.3966900870033765" fill="#ff4c07" stroke="none" /><line stroke="#e1ed5e" stroke-width="0.3" x1="26.266209847984243" x2="21.928928074336255" y1="57.711370442889674" y2="55.22380399835377" /><path d="M 25.398753493254645 57.213857153982495 a86.0,86.0 0 0,1 29.58750427330803,-30.492523968695096" fill="none" id="id71" stroke="none" /><text fill="#e1ed5e" style="font-size:6.75px; font-family:Arial;" text-anchor="middle"><textPath startOffset="21.46611528233685" xlink:href="#id71">November</textPath></text><path d="M 86.10567301691215 84.25364557470407 l -41.68298094926353 -47.23906327588782 a84.0,84.0 0 0,0 1.092424805412906,-0.9473400263212777 l 40.863662345203856 47.94956829562878" fill="#4dd2ff" stroke="none" /><line stroke="#e1ed5e" stroke-width="0.3" x1="56.76296977257108" x2="54.21961505331056" y1="26.818313649435495" y2="22.513508569990535" /><path d="M 56.25429882871898 25.957352633546506 a86.0,86.0 0 0,1 42.26535254187918,-11.944610805530505" fill="none" id="id72" stroke="none" /><text fill="#e1ed5e" style="font-size:6.75px; font-family:Arial;" text-anchor="middle"><textPath startOffset="22.20632615414155" xlink:href="#id72">December</textPath></text><path d="M 89.94658935756843 81.56283822128135 l -4.739497982036485 -8.691865293546027 a30.900068858491736,30.900068858491736 0 0,0 0.4691733341974545,-0.2506161466267593 l 4.589179601310725 8.772160166674535" fill="#ff1c02" stroke="none" /></svg>